<svg width="305" height="1354" xmlns="http://www.w3.org/2000/svg" xmlns:xlink="http://www.w3.org/1999/xlink" overflow="hidden"><defs><clipPath id="clip0"><rect x="1201" y="361" width="305" height="1354"/></clipPath></defs><g clip-path="url(#clip0)" transform="translate(-1201 -361)"><path d="M1201 513C1201 429.053 1269.28 361 1353.5 361 1437.72 361 1506 429.053 1506 513 1506 596.947 1437.72 665 1353.5 665 1269.28 665 1201 596.947 1201 513Z" fill-rule="evenodd"/><path d="M1201 1562.5C1201 1478.28 1269.28 1410 1353.5 1410 1437.72 1410 1506 1478.28 1506 1562.5 1506 1646.72 1437.72 1715 1353.5 1715 1269.28 1715 1201 1646.72 1201 1562.5Z" fill-rule="evenodd"/><path d="M1201 1037.5C1201 953.277 1269.28 885 1353.5 885 1437.72 885 1506 953.277 1506 1037.5 1506 1121.72 1437.72 1190 1353.5 1190 1269.28 1190 1201 1121.72 1201 1037.5Z" fill-rule="evenodd"/></g></svg>