<svg id="svg" version="1.1" xmlns="http://www.w3.org/2000/svg" xmlns:xlink="http://www.w3.org/1999/xlink" width="400" height="414.3198090692124" viewBox="0, 0, 400,414.3198090692124"><g id="svgg"><path id="path0" d="M172.792 2.391 C 77.248 15.455,0.955 100.418,0.955 193.757 L 0.955 200.477 12.411 200.477 C 18.711 200.477,23.867 200.155,23.867 199.761 C 23.930 143.309,59.413 79.625,107.383 49.871 C 220.527 -20.310,361.186 54.916,372.478 191.647 C 381.288 298.319,294.164 392.645,191.810 387.251 L 180.756 386.669 173.433 399.391 C 169.405 406.388,166.110 412.395,166.110 412.739 C 166.110 413.083,208.686 413.365,260.723 413.365 C 350.437 413.365,355.302 413.279,354.697 411.695 C 354.346 410.776,347.212 398.180,338.843 383.704 C 321.901 354.398,322.656 356.209,326.264 353.542 C 348.780 336.895,374.579 300.790,386.126 269.768 C 438.666 128.614,321.710 -17.969,172.792 2.391 M182.339 33.522 C 101.040 42.785,41.437 107.044,33.900 193.556 L 33.297 200.477 48.008 200.477 L 62.719 200.477 63.300 191.169 C 69.384 93.775,173.711 33.713,260.952 77.378 C 342.652 118.270,362.007 226.511,299.448 292.657 C 295.008 297.352,291.184 300.979,290.951 300.716 C 290.717 300.453,283.905 288.751,275.812 274.711 C 267.719 260.671,260.865 249.179,260.580 249.174 C 258.893 249.143,186.650 376.662,188.016 377.260 C 190.315 378.266,203.393 378.150,213.641 377.032 C 348.852 362.282,411.046 197.914,321.987 90.689 C 288.369 50.213,233.387 27.705,182.339 33.522 " stroke="none" fill="#000000" fill-rule="evenodd"></path></g></svg>